<?xml version="1.0" encoding="utf-8"?>
<!-- Generator: Adobe Illustrator 22.0.1, SVG Export Plug-In . SVG Version: 6.00 Build 0)  -->
<svg version="1.1" id="IAM" xmlns="http://www.w3.org/2000/svg" xmlns:xlink="http://www.w3.org/1999/xlink" x="0px" y="0px"
	 viewBox="0 0 25 25" style="enable-background:new 0 0 25 25;" xml:space="preserve">
<path d="M24.7,20.6L24.7,20.6l-9.8-9.8c0.4-0.9,0.6-2,0.6-3.1C15.5,3.5,12,0,7.8,0S0,3.5,0,7.8s3.5,7.8,7.8,7.8
	c0.7,0,1.4-0.1,2.1-0.3l3.7,3.7h0.1h2.6v2.6c0,0.1,0.1,0.1,0.1,0.1H19v2.6c0,0.1,0.1,0.1,0.1,0.1l5.8,0.6l0,0c0.1,0,0.1-0.1,0.1-0.1
	L24.7,20.6z M7.9,7.9c-1,1-2.6,1-3.6,0s-1-2.6,0-3.6s2.6-1,3.6,0l0,0C8.9,5.3,8.9,6.9,7.9,7.9z"/>
</svg>
