<?xml version="1.0" encoding="utf-8"?>
<!-- Generator: Adobe Illustrator 22.0.1, SVG Export Plug-In . SVG Version: 6.00 Build 0)  -->
<svg version="1.1" xmlns="http://www.w3.org/2000/svg" xmlns:xlink="http://www.w3.org/1999/xlink" x="0px" y="0px"
	 viewBox="0 0 48 64" style="enable-background:new 0 0 48 64;" xml:space="preserve">
<style type="text/css">
	.st0{display:none;}
	.st1{display:inline;}
	.st2{fill-rule:evenodd;clip-rule:evenodd;fill:url(#SVGID_1_);}
	.st3{fill-rule:evenodd;clip-rule:evenodd;fill:url(#SVGID_2_);}
	.st4{fill-rule:evenodd;clip-rule:evenodd;fill:url(#SVGID_3_);}
	.st5{fill-rule:evenodd;clip-rule:evenodd;fill:url(#SVGID_4_);}
	.st6{fill-rule:evenodd;clip-rule:evenodd;fill:url(#SVGID_5_);}
	.st7{fill-rule:evenodd;clip-rule:evenodd;fill:url(#SVGID_6_);}
	.st8{fill-rule:evenodd;clip-rule:evenodd;fill:url(#SVGID_7_);}
	.st9{fill-rule:evenodd;clip-rule:evenodd;fill:url(#SVGID_8_);}
</style>
<g id="Layer_1">
</g>
<g id="Layer_2" class="st0">
	<g class="st1">
		<linearGradient id="SVGID_1_" gradientUnits="userSpaceOnUse" x1="-107.5961" y1="9.467" x2="-105.1284" y2="7.1041">
			<stop  offset="0" style="stop-color:#F48128"/>
			<stop  offset="1" style="stop-color:#DC5956"/>
			<stop  offset="1" style="stop-color:#B51F7D"/>
		</linearGradient>
		<path class="st2" d="M-101.4,11h-4.8l-2.8-2.9l0-4.8L-101.4,11z"/>
		<linearGradient id="SVGID_2_" gradientUnits="userSpaceOnUse" x1="-105.0899" y1="3.96" x2="-107.5148" y2="1.7667">
			<stop  offset="0" style="stop-color:#F9A529"/>
			<stop  offset="1" style="stop-color:#F4B627"/>
		</linearGradient>
		<path class="st3" d="M-101,0h-4.8l-3.2,3.2l0,4.9L-101,0z"/>
	</g>
	<g class="st1">
		
			<linearGradient id="SVGID_3_" gradientUnits="userSpaceOnUse" x1="-328.9916" y1="448.0754" x2="-326.5239" y2="445.7125" gradientTransform="matrix(-1 0 0 -1 -427.3955 454.6084)">
			<stop  offset="0" style="stop-color:#2CA7C9"/>
			<stop  offset="1" style="stop-color:#2691C3"/>
		</linearGradient>
		<path class="st4" d="M-104.6,5h4.8l2.8,2.9l0,4.8L-104.6,5z"/>
		
			<linearGradient id="SVGID_4_" gradientUnits="userSpaceOnUse" x1="-326.4854" y1="442.5684" x2="-328.9103" y2="440.3751" gradientTransform="matrix(-1 0 0 -1 -427.3955 454.6084)">
			<stop  offset="0" style="stop-color:#2291C7"/>
			<stop  offset="1" style="stop-color:#007AC0"/>
		</linearGradient>
		<path class="st5" d="M-105,16h4.8l3.2-3.2l0-4.9L-105,16z"/>
	</g>
</g>
<g id="Layer_2_copy">
</g>
<g id="Layer_2_copy_2">
</g>
<g id="Layer_5">
</g>
<g id="Layer_6">
	<g>
		<g>
			<linearGradient id="SVGID_5_" gradientUnits="userSpaceOnUse" x1="5.5751" y1="37.613" x2="15.3739" y2="28.2306">
				<stop  offset="0" style="stop-color:#F48128"/>
				<stop  offset="1" style="stop-color:#DC5956"/>
				<stop  offset="1" style="stop-color:#B51F7D"/>
			</linearGradient>
			<path class="st6" d="M30.3,43.7H11.2L0,32.2l0.1-19.1L30.3,43.7z"/>
			<linearGradient id="SVGID_6_" gradientUnits="userSpaceOnUse" x1="15.5269" y1="15.7321" x2="5.898" y2="7.0227">
				<stop  offset="0" style="stop-color:#F9A529"/>
				<stop  offset="1" style="stop-color:#F4B627"/>
			</linearGradient>
			<path class="st7" d="M31.8,0H12.6L0,12.8l0.1,19.3L31.8,0z"/>
		</g>
		<g>
			
				<linearGradient id="SVGID_7_" gradientUnits="userSpaceOnUse" x1="-469.8204" y1="428.2214" x2="-460.0216" y2="418.839" gradientTransform="matrix(-1 0 0 -1 -427.3955 454.6084)">
				<stop  offset="0" style="stop-color:#2CA7C9"/>
				<stop  offset="1" style="stop-color:#2691C3"/>
			</linearGradient>
			<path class="st8" d="M17.7,20.3h19.1L48,31.8l-0.1,19.1L17.7,20.3z"/>
			
				<linearGradient id="SVGID_8_" gradientUnits="userSpaceOnUse" x1="-459.8687" y1="406.3405" x2="-469.4975" y2="397.6311" gradientTransform="matrix(-1 0 0 -1 -427.3955 454.6084)">
				<stop  offset="0" style="stop-color:#2291C7"/>
				<stop  offset="1" style="stop-color:#007AC0"/>
			</linearGradient>
			<path class="st9" d="M16.2,64h19.1L48,51.2l-0.1-19.3L16.2,64z"/>
		</g>
	</g>
</g>
</svg>
