<?xml version="1.0" encoding="utf-8"?>
<!-- Generator: Adobe Illustrator 22.0.1, SVG Export Plug-In . SVG Version: 6.00 Build 0)  -->
<svg version="1.1" id="Layer_1" xmlns="http://www.w3.org/2000/svg" xmlns:xlink="http://www.w3.org/1999/xlink" x="0px" y="0px"
	 viewBox="0 0 155 45" style="enable-background:new 0 0 155 45;" xml:space="preserve">
<style type="text/css">
	.st0{fill:#FFFFFF;}
	.st1{fill:url(#SVGID_1_);}
	.st2{fill:url(#SVGID_2_);}
	.st3{fill:url(#SVGID_3_);}
	.st4{fill:url(#SVGID_4_);}
</style>
<g>
	<g>
		<path class="st0" d="M44.3,17.7V45h-5V17.7H44.3z M61.2,17.7L49.6,30.4L62.4,45h-7L44.9,32.2V29L55,17.7H61.2z"/>
		<path class="st0" d="M62,38.8c0-3.9,2.9-6,8.7-6c1.3,0,2.7,0.1,4,0.3v-1.5c0-1.7-1.3-2.7-3.8-2.7c-2.2,0-4.6,0.3-7.3,1v-4
			c2.6-0.7,5.1-1,7.3-1c5.9,0,9,2.2,9,6.5V45H77l-1.7-1.7c-1.7,1.2-3.7,1.7-5.8,1.7C64.4,45,62,42.9,62,38.8z M70.6,36.2
			c-2.4,0-3.6,0.9-3.6,2.5c0,1.7,1,2.6,3.1,2.6c1.6,0,3.3-0.5,4.7-1.5v-3.2C73.5,36.4,72,36.2,70.6,36.2z"/>
		<path class="st0" d="M83.5,45V17.7h5v9.8c1.5-1.7,3.6-2.5,6-2.5c4.7,0,7.1,2.5,7.1,7.4V45h-5V32.3c0-2.2-1.1-3.3-3.3-3.3
			c-1.6,0-3.3,0.7-4.8,2v14H83.5z"/>
		<path class="st0" d="M104.6,35c0-6.7,3.3-10,9.9-10s9.9,3.4,9.9,10s-3.3,10-9.9,10C108,45,104.7,41.6,104.6,35z M114.5,41.2
			c3.3,0,4.9-2.1,4.9-6.2c0-4-1.6-6.1-4.9-6.1c-3.3,0-4.9,2.1-4.9,6.1C109.7,39.1,111.2,41.2,114.5,41.2z"/>
		<path class="st0" d="M132.3,17.7V45h-5V17.7H132.3z"/>
		<path class="st0" d="M135.1,35c0-6.7,3.3-10,9.9-10s9.9,3.4,9.9,10s-3.3,10-9.9,10C138.5,45,135.1,41.6,135.1,35z M145.1,41.2
			c3.3,0,4.9-2.1,4.9-6.2c0-4-1.6-6.1-4.9-6.1s-4.9,2.1-4.9,6.1C140.2,39.1,141.8,41.2,145.1,41.2z"/>
	</g>
	<g>
		
			<linearGradient id="SVGID_1_" gradientUnits="userSpaceOnUse" x1="3.8833" y1="15.4676" x2="10.7354" y2="22.0284" gradientTransform="matrix(1 0 0 -1 0 42)">
			<stop  offset="0" style="stop-color:#F48128"/>
			<stop  offset="1" style="stop-color:#DC5956"/>
			<stop  offset="1" style="stop-color:#B51F7D"/>
		</linearGradient>
		<path class="st1" d="M21.2,30.8H7.9L0,22.7V9.4L21.2,30.8z"/>
		
			<linearGradient id="SVGID_2_" gradientUnits="userSpaceOnUse" x1="10.8615" y1="30.7568" x2="4.1283" y2="36.8471" gradientTransform="matrix(1 0 0 -1 0 42)">
			<stop  offset="0" style="stop-color:#F9A529"/>
			<stop  offset="1" style="stop-color:#F4B627"/>
		</linearGradient>
		<path class="st2" d="M22.3,0.2H8.8L0,9.2v13.5L22.3,0.2z"/>
	</g>
	<g>
		
			<linearGradient id="SVGID_3_" gradientUnits="userSpaceOnUse" x1="-80.2587" y1="-533.8943" x2="-73.4066" y2="-527.3335" gradientTransform="matrix(-1 0 0 1 -51.3955 552.6084)">
			<stop  offset="0" style="stop-color:#2CA7C9"/>
			<stop  offset="1" style="stop-color:#2691C3"/>
		</linearGradient>
		<path class="st3" d="M11.6,14.4H25l7.8,8.1v13.3L11.6,14.4z"/>
		
			<linearGradient id="SVGID_4_" gradientUnits="userSpaceOnUse" x1="-73.2804" y1="-518.6051" x2="-80.0137" y2="-512.5148" gradientTransform="matrix(-1 0 0 1 -51.3955 552.6084)">
			<stop  offset="0" style="stop-color:#2291C7"/>
			<stop  offset="1" style="stop-color:#007AC0"/>
		</linearGradient>
		<path class="st4" d="M10.5,45h13.4l8.8-9V22.5L10.5,45z"/>
	</g>
</g>
</svg>
