<?xml version="1.0" encoding="utf-8"?>
<!-- Generator: Adobe Illustrator 22.0.1, SVG Export Plug-In . SVG Version: 6.00 Build 0)  -->
<svg version="1.1" id="Layer_1" xmlns="http://www.w3.org/2000/svg" xmlns:xlink="http://www.w3.org/1999/xlink" x="0px" y="0px"
	 viewBox="0 0 142 41" style="enable-background:new 0 0 142 41;" xml:space="preserve">
<style type="text/css">
	.st0{fill:#273247;}
	.st1{fill-rule:evenodd;clip-rule:evenodd;fill:url(#SVGID_1_);}
	.st2{fill-rule:evenodd;clip-rule:evenodd;fill:url(#SVGID_2_);}
	.st3{fill-rule:evenodd;clip-rule:evenodd;fill:url(#SVGID_3_);}
	.st4{fill-rule:evenodd;clip-rule:evenodd;fill:url(#SVGID_4_);}
</style>
<g>
	<g>
		<path class="st0" d="M40.6,14v25H36V14H40.6z M56.1,14L45.4,25.6L57.2,39h-6.4l-9.7-11.7v-3L50.4,14H56.1z"/>
		<path class="st0" d="M56.8,33.3c0-3.6,2.7-5.5,8-5.5c1.2,0,2.5,0.1,3.7,0.3v-1.4c0-1.6-1.2-2.5-3.5-2.5c-2,0-4.2,0.3-6.7,0.9v-3.7
			c2.4-0.6,4.7-0.9,6.7-0.9c5.4,0,8.2,2,8.2,6V39h-2.7l-1.6-1.6c-1.6,1.1-3.4,1.6-5.3,1.6C59,39,56.8,37.1,56.8,33.3z M64.7,30.9
			c-2.2,0-3.3,0.8-3.3,2.3c0,1.6,0.9,2.4,2.8,2.4c1.5,0,3-0.5,4.3-1.4v-2.9C67.3,31.1,66,30.9,64.7,30.9z"/>
		<path class="st0" d="M76.5,39V14h4.6v9c1.4-1.6,3.3-2.3,5.5-2.3c4.3,0,6.5,2.3,6.5,6.8V39h-4.6V27.4c0-2-1-3-3-3
			c-1.5,0-3,0.6-4.4,1.8V39H76.5z"/>
		<path class="st0" d="M95.8,29.8c0-6.1,3-9.2,9.1-9.2c6.1,0,9.1,3.1,9.1,9.2c0,6.1-3,9.2-9.1,9.2C98.9,39,95.9,35.9,95.8,29.8z
			 M104.9,35.5c3,0,4.5-1.9,4.5-5.7c0-3.7-1.5-5.6-4.5-5.6c-3,0-4.5,1.9-4.5,5.6C100.5,33.6,101.9,35.5,104.9,35.5z"/>
		<path class="st0" d="M121.2,14v25h-4.6V14H121.2z"/>
		<path class="st0" d="M123.8,29.8c0-6.1,3-9.2,9.1-9.2c6.1,0,9.1,3.1,9.1,9.2c0,6.1-3,9.2-9.1,9.2C126.9,39,123.8,35.9,123.8,29.8z
			 M132.9,35.5c3,0,4.5-1.9,4.5-5.7c0-3.7-1.5-5.6-4.5-5.6c-3,0-4.5,1.9-4.5,5.6C128.4,33.6,129.9,35.5,132.9,35.5z"/>
	</g>
	<g>
		<linearGradient id="SVGID_1_" gradientUnits="userSpaceOnUse" x1="3.5715" y1="24.0958" x2="9.8489" y2="18.0852">
			<stop  offset="0" style="stop-color:#F48128"/>
			<stop  offset="1" style="stop-color:#DC5956"/>
			<stop  offset="1" style="stop-color:#B51F7D"/>
		</linearGradient>
		<path class="st1" d="M19.4,28H7.2L0,20.6l0-12.2L19.4,28z"/>
		<linearGradient id="SVGID_2_" gradientUnits="userSpaceOnUse" x1="9.9469" y1="10.0784" x2="3.7784" y2="4.4989">
			<stop  offset="0" style="stop-color:#F9A529"/>
			<stop  offset="1" style="stop-color:#F4B627"/>
		</linearGradient>
		<path class="st2" d="M20.4,0H8.1L0,8.2l0,12.4L20.4,0z"/>
	</g>
	<g>
		
			<linearGradient id="SVGID_3_" gradientUnits="userSpaceOnUse" x1="-207.824" y1="547.7042" x2="-201.5466" y2="541.6936" gradientTransform="matrix(-1 0 0 -1 -181.3955 564.6084)">
			<stop  offset="0" style="stop-color:#2CA7C9"/>
			<stop  offset="1" style="stop-color:#2691C3"/>
		</linearGradient>
		<path class="st3" d="M10.6,13h12.3l7.1,7.4l0,12.2L10.6,13z"/>
		
			<linearGradient id="SVGID_4_" gradientUnits="userSpaceOnUse" x1="-201.4486" y1="533.6868" x2="-207.6171" y2="528.1073" gradientTransform="matrix(-1 0 0 -1 -181.3955 564.6084)">
			<stop  offset="0" style="stop-color:#2291C7"/>
			<stop  offset="1" style="stop-color:#007AC0"/>
		</linearGradient>
		<path class="st4" d="M9.6,41h12.3l8.1-8.2l0-12.4L9.6,41z"/>
	</g>
</g>
</svg>
